<?xml version="1.0" encoding="UTF-8"?>
<svg xmlns="http://www.w3.org/2000/svg" viewBox="0 0 476.03 694.04">
  <defs>
    <style>
      .cls-1 {
        fill: #231f20;
      }

      .cls-1, .cls-2, .cls-3, .cls-4 {
        stroke-width: 0px;
      }

      .cls-2 {
        fill: #494949;
      }

      .cls-3 {
        fill: #fff;
      }

      .cls-4 {
        fill: #a16fb2;
      }
    </style>
  </defs>
  <g id="Layer_2" data-name="Layer 2">
    <path class="cls-3" d="M391.01,553.84l40.77-42.72,26.74-63.24,9.95-56.84-3.94-57-6.01-119.7-25.07-58.41-34.17-27.5-62.13-23.38-106.43,22.85-60.89,47.56-30.44,66.18,24.77,70.26,62.08,63.56s.02.02.03.03l22.69,15.54-25.88,40.52-52.26,44.97v30.64l44.69,46.8,44.94,12.03,76.26,4.05,54.31-16.21Z"/>
    <path class="cls-2" d="M398.74,124.13c-13.26-8.03-32.72-1.51-34.26,15.07-.62,6.65,2.03,13.67,7.29,17.87,5.93,4.74,15.19,5.24,19.45-1.89,3.46-5.79-4.7-12.28-9.42-7.27-8.87,9.4-20.35,30.89-6.29,40.74,10.71,7.51,27.2,3.2,32.78-8.66l-10.97-1.43c2.86,12.89,9.22,27.19,22.7,31.79,8.53,2.91,14.09-3.64,18.28-10.2,4.27-6.69,6.44-14.35,6.99-22.22s-11.46-7.67-12,0c-.35,4.97-1.72,9.78-4.15,14.14-1.08,1.93-2.32,4.36-4.05,5.8s-2.53.84-4.59-.56c-7.06-4.79-9.85-14.06-11.6-21.95-1.07-4.81-8.77-6.1-10.97-1.43-2.48,5.28-10.1,8.92-15.39,5.03-3.11-2.29-.87-7.48.21-10.54,1.6-4.53,4.25-8.55,7.54-12.03-3.14-2.42-6.28-4.85-9.42-7.27.59-.99-.24-.4-1.52-1.27-1.05-.72-1.81-2.03-2.29-3.18-.89-2.13-.98-4.88-.07-7.01,2.61-6.06,10.85-6.12,15.7-3.18,6.62,4.01,12.66-6.36,6.06-10.36h0Z"/>
    <path class="cls-2" d="M360.71,151.41c-1.68,18.33-2.8,47.15,17.68,56.21,9.34,4.13,19.38-.72,24.05-9.38,2.67-4.96,3.51-10.46,4.08-15.99.51-4.96.61-10.43-3.64-13.85-5.96-4.8-14.5,3.64-8.49,8.49,1.5,1.21-.05,7.25-.34,8.85-.56,3.11-1.4,6.28-3.49,8.73-5.04,5.91-10.96.53-13.91-4.53-6.67-11.43-5.09-25.93-3.93-38.53.7-7.69-11.3-7.64-12,0h0Z"/>
  </g>
  <g id="Layer_3" data-name="Layer 3">
    <path class="cls-4" d="M399.29,128.45l-40.11-17.97-46.23-3.52-79.17,19.47-63.96,49.05-26.85,50.96,12.54,69.29,26.31,37.58,44.43,38.3,47.23,7.03,50.67-19.13-53.57-11.37-37.51-29.34-20.28-38.99-6.95-37.1,12.79-28.35,30.31-19.61,41.66-7.52,23.45,6.85,28.44,10.54,31.16,38.89,8.14-4.17s17.81-2.33,18.88-1.56c12.17,8.87,12.17,17.78,12.17,17.78l-7.58,16.21-36.32,31.76-29.44,47.16,80.04-31.92,39.07-34.78,5.9-53.23-31.08-74.83-34.17-27.5Z"/>
  </g>
  <g id="Layer_4" data-name="Layer 4">
    <path class="cls-2" d="M378.82,110.17c-10.85,3.49-19.05,14.12-17.49,25.83,1.98,14.88,19.5,15.56,30.99,12.17l-6.78-8.81c-4.14,7.88-8.24,16.89-5.68,25.96,1.92,6.79,8.88,15.14,15.63,17.44,7.37,2.51,15.16-1.24,19.23-7.55,1.06-1.64,1.88-3.47,2.53-5.31.33-.92.61-1.85.83-2.8.94-2.43-.24-2.47-3.53-.12.22.94,12.71,2.5,14.18,2.79,7.54,1.48,10.77-10.08,3.19-11.57-3.55-.7-7.09-1.39-10.64-2.09-2.68-.53-5.55-1.43-8.27-.76-6.38,1.58-5.39,7.92-7.91,12.57-3.67,6.79-8.99,1.76-12.07-2.73-4.35-6.33-.25-13.83,2.87-19.77,2.35-4.48-1.55-10.35-6.78-8.81-4.44,1.31-16.11,3.73-16.04-3.46.05-5.27,4.07-9.83,8.91-11.39,7.32-2.35,4.19-13.94-3.19-11.57h0Z"/>
    <path class="cls-2" d="M211.35,135.13c-5.72,9.46-4.27,22.47,4.15,29.93,9.03,8,22.54,6.97,31.36-.59l-10.24-4.24c1.64,13.55,12.89,25.21,27.28,23.38,13.55-1.72,22.38-18.57,11.17-28.88l-4.24,10.24c14,1.31,31.23-.83,36.63-16.18,4.3-12.21-7.15-27.19-20.44-22.35l7.38,7.38c1.83-5.22,3.66-10.43,5.48-15.65,2.56-7.3-9.03-10.44-11.57-3.19-1.83,5.22-3.66,10.43-5.48,15.65-1.46,4.15,3.19,8.91,7.38,7.38,2.41-.88,4.6.12,5.78,2.49,1.51,3.01-.36,6.27-2.54,8.39-5.88,5.7-15.17,4.77-22.62,4.08-5.2-.49-7.89,6.88-4.24,10.24,5.04,4.64-2.28,9.18-6.91,8.57-5.65-.75-10.39-5.98-11.06-11.56-.63-5.23-6.06-7.83-10.24-4.24-10.06,8.62-23.23-3.95-16.67-14.79,4.01-6.63-6.37-12.66-10.36-6.06h0Z"/>
    <path class="cls-2" d="M319.32,111.19c-1.23,3.71-1.82,8.34.37,11.83,2.91,4.64,8.44,5.37,13.45,4.48,4.68-.83,8.58-4.47,8.6-9.41.02-5.44-5.13-9.92-10.49-8.41-3.12.88-5.05,4.24-4.19,7.38.86,3.12,4.25,5.07,7.38,4.19-2.12.6-4.76-.92-4.7-3.16.07-.82.39-1.54.97-2.16.55-.35.52-.36-.08,0,.51-.23.56-.28.14-.16-.43.09-.36.1.2.02-.19.02-2.37.09-2.37.04.01-.16,1.28.87,1.32.94.26.41.22,1.85.29.69,0-.35,0-.7.04-1.04-.1.71-.08.71.04,0,.2-.68.36-1.36.59-2.04,1.02-3.07-1.18-6.55-4.19-7.38-3.27-.9-6.35,1.11-7.38,4.19h0Z"/>
    <path class="cls-2" d="M344.78,146.03c7.72,0,7.73-12,0-12s-7.73,12,0,12h0Z"/>
    <path class="cls-2" d="M406.15,279.35c2.7.36,5.38,7.54,4.86,9.64-.79,3.18-4.49,4.07-6.86,2.01-3.61-3.13-8.36-1.69-10.03,2.65-1.43,3.72-3.77,7.07-6.81,9.67-.74.67-1.53,1.26-2.38,1.78-1.31,1-1.63,1.13-.98.38-1.56-.57-2.69-4.98-3.09-6.36-2.16-7.4-13.74-4.25-11.57,3.19,2.48,8.52,9.43,19.4,19.62,14.31,8.05-4.02,13.61-11.55,16.78-19.78l-10.03,2.65c8.67,7.52,22.38,5.38,26.49-6.05s-4.87-24.61-16.01-26.09c-3.24-.43-5.97,3.07-6,6-.04,3.59,2.8,5.58,6,6h0Z"/>
    <path class="cls-2" d="M421.82,262c.45,2.54,2.34,5.08,4.58,6.33,3.15,1.75,6.99,1.43,9.64-1.07,2.06-1.94,2.73-5.08,2.1-7.77-.3-1.29-1-2.55-1.94-3.49-1.39-1.39-3.13-1.97-5.05-2.09-1.48-.09-3.22.73-4.24,1.76s-1.82,2.75-1.76,4.24c.15,3.41,2.64,5.79,6,6h.13c-.53-.06-1.06-.13-1.6-.21.13.02.23.05.35.1l-1.43-.6c.07.03.13.07.2.12l-1.21-.94c.09.08.16.15.24.24l-.94-1.21c.07.1.12.2.17.3l-.6-1.43c.06.16.1.31.13.48l-.21-1.6c.02.22.02.43,0,.65l.21-1.6c-.04.22-.09.43-.18.64l.6-1.43c-.08.16-.16.3-.27.44l.94-1.21c-.09.1-.17.18-.27.27l1.21-.94c-.11.08-.21.14-.33.2l1.43-.6c-.15.06-.28.09-.45.11l1.6-.21c-.2.02-.37.02-.57,0l1.6.21c-.19-.03-.36-.08-.54-.14l1.43.6c-.24-.1-.45-.22-.67-.37l1.21.94c-.26-.21-.49-.44-.7-.7l.94,1.21c-.2-.28-.37-.56-.52-.87l.6,1.43c-.13-.32-.22-.63-.28-.96-.25-1.4-1.58-2.89-2.76-3.59-1.29-.75-3.18-1.07-4.62-.6s-2.85,1.37-3.59,2.76c-.79,1.5-.9,2.95-.6,4.62h0Z"/>
    <path class="cls-2" d="M331.49,192.73c-3.87-4.56-13.26-15.41-5.16-20.1,7.01-4.06,13.69,1.27,14.75,8.33.77,5.08,8.78,5.81,10.97,1.43,2.59-5.19,8.81-5.05,12.54-1.09,5.25,5.56,3.79,13.67,1.38,20.15-2.03,5.44,4.57,8.7,8.81,6.78,3.72-1.68,6.79,7.8,7.45,10.01,1.17,3.88,2.22,9.04-.68,12.44-4.98,5.85,3.47,14.38,8.49,8.49,6.93-8.14,6.13-18.69,2.31-28.12-4.02-9.92-12.41-18.25-23.63-13.18l8.81,6.78c4.46-11.98,3.44-26.63-7.73-34.59-9.15-6.52-22.96-4.08-28.13,6.28l10.97,1.43c-2.26-14.94-19.29-23.07-32.38-15.5-6.38,3.69-10.39,10.56-9.14,17.98,1.31,7.83,6.87,15.07,11.87,20.96s13.45-2.63,8.49-8.49h0Z"/>
    <path class="cls-2" d="M402.39,205.04c-4.73,6.25.96,15.03,8.13,15.22,7.79.21,12.75-8.07,10.31-15.07s-10.65-10.65-17.24-7.18-7.52,11.95-2.94,17.29c2.11,2.46,6.32,2.17,8.49,0,2.44-2.44,2.11-6.02,0-8.49.46.53.5.81.58,1.5-.11-.97.14-.04-.1.06.18-.58.19-.67.04-.26-.18.39-.12.32.17-.21-.29.36-.54.53-.89.8-.39.13-.29.1.3-.07l-.52.07c.63.03.73.02.29-.03-.34-.05-.34-.04.01.04.41.13.36.09-.14-.12l.49.27c-1-1.01.73.66-.11-.19l.32.55c-.16-.35-.18-.33-.05.06.4.35-.18.11.03-.38.09-.22.86-.84.3-.4s.47-.19.61-.28c-.79.45-.1-.06.59.07.61.12,1.95,1.92,1.48,1.08-.28-.5.21.7.22.91.01.42-.73,1.73-.02.8,1.96-2.59.41-6.71-2.15-8.21-3.08-1.8-6.25-.44-8.21,2.15h0Z"/>
    <path class="cls-2" d="M435.73,219.55c7.72,0,7.73-12,0-12s-7.73,12,0,12h0Z"/>
    <path class="cls-2" d="M452.27,209.6c-5.39,7.36-11,16.18-11.23,25.59-.22,9.21,5.03,17.23,10.25,24.36,4.52,6.17,14.94.19,10.36-6.06-3.82-5.22-8.89-11.46-8.61-18.3.28-7.04,5.59-14.06,9.59-19.53,4.57-6.24-5.84-12.23-10.36-6.06h0Z"/>
    <path class="cls-2" d="M215.29,203.57c-1.58-.76-3.1-1.7-3.62-3.47-.31-1.06-.1-.92.47-1.34.36-.19.41-.23.14-.12.75-.2.88-.24.4-.1-.18,0-.34-.05-.49-.14-.39-.46-.43-.49-.1-.09.11-.19.5,2.02.23,1.7.05-.04.09-.08.13-.12,3.64-1.66,5.11-.29,4.42,4.08,3.83-6.72-6.53-12.77-10.36-6.06-4.89,8.58,6.62,17.11,13.86,10.9,6.09-5.22,4.94-16.41-1.84-20.59-6.16-3.79-14.51-.64-17.62,5.64-3.8,7.66,1.12,16.59,8.32,20.06,2.92,1.41,6.48.8,8.21-2.15,1.54-2.63.78-6.8-2.15-8.21h0Z"/>
    <path class="cls-2" d="M193.96,182.41c7.72,0,7.73-12,0-12s-7.73,12,0,12h0Z"/>
    <path class="cls-2" d="M212.11,236.22c-4.49-5.96-10.23-12.46-17.25-15.46-8.07-3.44-14.47,2.88-19.36,8.71s-7.87,12.66-5.78,20.07c1.91,6.82,7.49,11.79,14.66,11.92l-4.24-10.24c-7.82,9.33-13.75,22.79-8.28,34.75,4.87,10.63,18.05,14.12,27.25,7l-10.03-2.65c2.11,7.86,5.32,15.8,12.18,20.68,6.24,4.45,13.94,5.17,20.78,1.75s.84-13.8-6.06-10.36c-8.78,4.38-13.74-9.34-15.32-15.27-1.28-4.78-6.61-5.29-10.03-2.65-4.41,3.42-8.58-4.15-8.83-7.3-.52-6.33,2.89-12.77,6.83-17.48,3.27-3.9,1.25-10.15-4.24-10.24-2.21-.04-3.29-2.65-3.37-4.6-.14-3.59,2.74-6.81,5.08-9.2.8-.82,2.87-3.56,3.97-3.73.87-.13,2.52,1.36,3.36,1.99,3.13,2.37,5.98,5.23,8.34,8.36,4.59,6.09,15.02.11,10.36-6.06h0Z"/>
    <path class="cls-2" d="M150.02,240.01c1.06-.68.46-.33.11-.19-.5.2.58.12.25.03.45.12.58.19.4.92-.2.8-.87,1.39-1.12,2.16-.22.65-.13-.91.1.08.78-.09,1.43.27,1.93,1.09.34.8.39,1.62.14,2.45,1.89-2.63.46-6.68-2.15-8.21-3.02-1.77-6.31-.48-8.21,2.15-3.64,5.06-.17,12.42,5.48,14.07,5.93,1.73,11.99-2.4,14.38-7.68s1.84-11.41-2.3-15.46-10.37-4.82-15.07-1.79c-6.47,4.17-.46,14.56,6.06,10.36h0Z"/>
    <path class="cls-2" d="M169.72,195.36c-3.74,3.45-2.52,9.8,1.7,12.25,4.57,2.66,10.47-.37,11.5-5.41s-2.48-9.65-7.54-10.33c-4.52-.61-8.44,2.01-10.66,5.82-1.58,2.71-.71,6.7,2.15,8.21s6.52.74,8.21-2.15c.13-.24.27-.46.42-.69-.5.61-.6.76-.3.43.13-.15.28-.29.43-.42-.65.47-.78.6-.4.37.4-.22.22-.15-.52.21-.99.08-1.16.1-.5.08l-.86-.12c.62.19.47.13-.43-.19-1.98-1.07-2.3-4.03-.76-5.59s4.46-1.56,6.08-.01,1.61,4.47-.05,6.01c2.31-2.13,2.32-6.35,0-8.49-2.47-2.27-6.02-2.28-8.49,0h0Z"/>
    <path class="cls-2" d="M202.92,347.56c-.42-2.24.51-5.92,2.75-7.13,2.81-1.52,4.65,2.98,5.55,5.33,1.24,3.24,5.4,6.08,8.81,3.59,5.02-3.67,14.68-7.32,18.62.1,4,7.53-5.64,13.6-11.16,16.06-7.04,3.14-.94,13.48,6.06,10.36,12.04-5.36,23.02-18.93,15.5-32.39s-24.36-12.34-35.08-4.5l8.81,3.59c-3.31-8.64-10.79-18.41-21.1-13.63-8.34,3.86-11.96,13.13-10.34,21.81,1.41,7.58,12.98,4.37,11.57-3.19h0Z"/>
    <path class="cls-2" d="M181.83,322.62c7.72,0,7.73-12,0-12s-7.73,12,0,12h0Z"/>
    <path class="cls-2" d="M263.33,347.37c-5.89,4.94-4.97,15.4,1.54,19.37s16.43.19,18.21-7.6c.72-3.16-.97-6.5-4.19-7.38-3.02-.83-6.66,1.02-7.38,4.19-.18.78-.15.19.15-.05-.3.49-.32.55-.05.2.24-.28.25-.29.02-.04-.06-.03-.84.94-.31.33.42-.48-.59.11.06-.03.81-.18-.51.11-.67.17.45-.17.88-.02.15-.07.46.03.89.15.17.02l.53.27c-.5-.31-.57-.32-.2-.05.59.79-.4-.79.08.11.44.82-.14-.8.05.14.17.83-.12-.53-.16-.6.16.35.29.92.05.19-.19-.58.07-.42-.1.19.08-.29.17-.61.24-.9-.29.64-.34.77-.13.38.18-.28.15-.27-.07.04-.25.29-.26.32-.03.07.16-.17.34-.33.53-.47,2.48-2.08,2.15-6.34,0-8.49-2.46-2.46-5.99-2.09-8.49,0h0Z"/>
    <path class="cls-2" d="M366,340.81c7.72,0,7.73-12,0-12s-7.73,12,0,12h0Z"/>
    <path class="cls-2" d="M437.14,290.79c1.69-.84,2.28-.36,3.33.48.8.64-.13.75.2-.24.18-.55.48-2.45.92-2.33-.04-.01-1.31.65-1.59.65-.82-.06-1.5-.34-2.03-.85-.09-.07-.16-.16-.23-.25-.17.04.09-.28-.26-.07-.49.3-1.04,1.72-1.36,2.19-1.82,2.68-.51,6.65,2.15,8.21,2.96,1.73,6.39.54,8.21-2.15,3.1-4.58,4.54-10.5.95-15.24s-10.52-4.99-14.59-.64c-3.45,3.68-5.16,9.7-3.66,14.58,1.85,6.04,8.43,8.8,14.02,6.01,2.9-1.45,3.71-5.54,2.15-8.21-1.73-2.95-5.3-3.61-8.21-2.15h0Z"/>
  </g>
  <g id="Layer_1" data-name="Layer 1">
    <path class="cls-1" d="M238.53,371.18c-37.33-17.92-67.89-49.91-82.17-89.02-8.24-22.56-10.03-46.28-1.74-69.09,7.46-20.52,21.63-37.93,37.79-52.31,31.01-27.61,72-44.52,113.38-47.36,20.17-1.38,41.16-.2,60.74,5.07,15.98,4.3,29.65,14.09,41.98,24.9,36.86,32.31,64.18,89.71,42.39,137.71-3.17,6.98,7.17,13.09,10.36,6.06,21.05-46.37,2.67-101.44-29.76-137.88-7.68-8.63-16.3-16.33-25.51-23.28-7.22-5.45-14.89-10.94-23.22-14.57-17.85-7.78-38.41-9.9-57.68-10.37-46.1-1.15-92.36,13.42-129.12,41.37-18.12,13.78-34.55,30.7-45.46,50.84-11.91,21.99-16.08,46.4-11.55,71.03,9.36,50.88,47.53,95.2,93.5,117.27,6.93,3.33,13.02-7.02,6.06-10.36h0Z"/>
    <path class="cls-1" d="M379.71,251.6c2.53-3.84,5.42-8.69,10.07-10.22s10.11,2.49,13.18,5.86c7.91,8.68,1.51,17.63-5.87,23.94-5.88,5.03,2.64,13.48,8.49,8.49,6.37-5.45,12.04-12.42,13.07-21.01.95-7.97-2.58-15.52-8.26-20.99s-14.1-10.11-22.36-8.24-14.04,9.09-18.67,16.1c-4.26,6.47,6.12,12.48,10.36,6.06h0Z"/>
    <path class="cls-1" d="M397.12,270.01c-29.39,22.82-54.16,51.22-72.8,83.42-2.49,4.3,1.69,10.58,6.78,8.81,26.01-9.03,52.23-18.52,77.03-30.55,21.07-10.22,41.17-23.91,53.14-44.56,3.88-6.69-6.48-12.74-10.36-6.06-11.24,19.37-30.51,31.5-50.25,40.93-23.46,11.22-48.2,20.14-72.75,28.66l6.78,8.81c18.17-31.38,42.29-58.76,70.93-80.99,6.09-4.73-2.46-13.17-8.49-8.49h0Z"/>
    <path class="cls-1" d="M233.5,382.26c15.95,4.25,32.61,4.57,48.69.74,15.81-3.77,30.54-11.1,45.01-18.32,6.91-3.45.84-13.8-6.06-10.36-13.05,6.51-26.2,13.03-40.39,16.67s-29.56,3.56-44.06-.3c-7.47-1.99-10.66,9.58-3.19,11.57h0Z"/>
    <path class="cls-1" d="M323.29,348.86c-23.7,4.66-48.61-2.2-67.85-16.48-19.15-14.22-32.07-35.89-38.16-58.72-3.04-11.39-4.96-23.69-2.98-35.43s8.61-21.58,18.65-28.36,22.18-12.02,34.17-14.83c13.28-3.12,26.45-1.71,39.3,2.61,23.59,7.92,51.52,23.25,61.45,47.47,2.89,7.05,14.5,3.96,11.57-3.19-10.45-25.49-34.58-41.17-59.02-51.65-13.97-5.99-29.06-10.16-44.4-8.75s-28.77,6.59-41.65,13.52c-11.82,6.35-22.48,15.24-27.92,27.77-5.7,13.11-5.64,27.65-3.42,41.54,4.26,26.59,17.13,52.53,37.08,70.82,23.14,21.22,55.38,31.37,86.36,25.27,7.57-1.49,4.37-13.06-3.19-11.57h0Z"/>
    <path class="cls-1" d="M209.72,219.75c2.86,20.88,10.48,40.85,22.11,58.43,4.24,6.41,14.64.41,10.36-6.06-11.13-16.82-18.16-35.58-20.9-55.56-.44-3.24-4.55-4.94-7.38-4.19-3.47.92-4.63,4.19-4.19,7.38h0Z"/>
    <path class="cls-1" d="M228.6,205.59c8.75,18.88,17.64,37.69,26.66,56.44,3.35,6.96,13.7.88,10.36-6.06-9.02-18.75-17.91-37.56-26.66-56.44-3.25-7-13.59-.91-10.36,6.06h0Z"/>
    <path class="cls-1" d="M258.31,192.09c10.66,18.09,20.53,37.99,36.79,51.81,5.85,4.97,14.38-3.48,8.49-8.49-15.5-13.17-24.75-32.14-34.91-49.38-3.92-6.65-14.29-.62-10.36,6.06h0Z"/>
    <path class="cls-1" d="M328.81,259.13c7.72,0,7.73-12,0-12s-7.73,12,0,12h0Z"/>
    <path class="cls-1" d="M259.11,301.72c7.72,0,7.73-12,0-12s-7.73,12,0,12h0Z"/>
    <path class="cls-1" d="M213.47,97.51c4.76,9.19,10.44,17.79,16.97,25.8s13.34,15.66,22.35,19.96c8.1,3.87,18.21,4.7,26.08-.23,2.38-1.49,2.06-2.06,4.35-1.41,2.46.7,5.15,3.09,7.38,4.42,5.19,3.11,10.38,6.23,15.57,9.34,6.64,3.98,12.68-6.39,6.06-10.36-4.65-2.79-9.29-5.57-13.94-8.36-4.08-2.45-8.32-5.78-12.86-7.27-4.31-1.41-7.87-.04-11.42,2.44s-7.74,3.21-12.14,2.09c-8.87-2.27-15.62-10.42-21.28-17.11-6.58-7.77-12.09-16.34-16.76-25.37-3.55-6.86-13.91-.8-10.36,6.06h0Z"/>
    <path class="cls-1" d="M81.68,191.47c12.41,10.35,25.79,19.33,39.69,27.55,7.11,4.21,15.23,7.79,23.68,6.36s14.07-7.05,19.12-13.17h-8.49c5.67,4.68,11.35,9.37,17.02,14.05s14.45-3.56,8.49-8.49-11.35-9.37-17.02-14.05c-2.31-1.91-6.27-2.69-8.49,0-4.03,4.88-8.69,10.49-15.67,9.98s-13.04-5.29-18.61-8.71c-10.89-6.7-21.41-13.81-31.24-22-5.89-4.91-14.42,3.53-8.49,8.49h0Z"/>
    <path class="cls-1" d="M322.52,359.29c-10.04,11.05-20.15,22.49-25.02,36.87-3.23,9.54-6.31,31.21,7.6,34.35,13.83,3.12,20.51-18.61,23.89-28.14,5.1-14.41,7.3-29.82,6.74-45.08l-9.03,5.18c3.05,1.3,3.97,4.24,5.45,7,1.55,2.88,3.37,5.56,5.44,8.09,4.08,4.98,9.28,9.19,14.93,12.29,11.6,6.36,25.98,8.81,38.85,5.18,6.2-1.75,12.43-6.26,10.74-13.57s-8.22-11.74-14.32-14.66c-14.93-7.15-31.54-13.42-48.25-13.68-7.72-.12-7.73,11.88,0,12,13.31.21,25.78,5.16,37.92,10.18,2.6,1.08,5.21,2.18,7.63,3.63,1.05.63,2.05,1.29,2.96,2.11.6.54,1.62,2.48,2.28,2.73.88-1.34.88-1.7,0-1.06-.45.3-.94.49-1.48.58-1.08.38-2.26.59-3.38.81-2.43.46-4.88.62-7.35.6-9.44-.1-19.06-3.63-26.29-9.72-3.87-3.26-6.94-7.1-9.32-11.55s-4.75-9.17-9.76-11.3c-3.9-1.66-9.21.16-9.03,5.18.39,10.71-.58,21.32-3.23,31.72-2.44,9.6-5.89,20.91-12.08,28.84-.69.89-1.04.45-.36.96-.48-.37-.68-1.69-.81-2.22-.56-2.31-.48-4.89-.32-7.25.34-5.13,1.92-10.25,4.13-14.88,4.84-10.12,12.47-18.46,19.94-26.69,5.18-5.71-3.28-14.22-8.49-8.49h0Z"/>
    <path class="cls-1" d="M234.21,384.31c9,4.84,8.28,16.78,3.65,24.47-6.19,10.3-17.5,17.36-26.81,24.54-17.82,13.74-43.35,28.81-47.98,52.83s14.37,47.4,32.31,61.6c20.34,16.1,44.01,23.64,69.59,26.24,26.07,2.66,53.16,5.61,79.14.87,22.95-4.19,47.24-10.36,65.04-26.34,32.26-28.98,50.06-73.12,58.94-114.63,5.23-24.45,7.74-49.52,7.94-74.51.1-12.03-.35-24.07-1.34-36.06-1.22-14.72-3.5-29.33-10.86-42.37-3.8-6.72-14.17-.68-10.36,6.06,6.28,11.12,8.18,23.74,9.23,36.31.85,10.28,1.3,20.59,1.35,30.91.1,21.39-1.44,42.83-5.1,63.91-7.11,41.02-21.85,82.63-50.32,113.83-6.94,7.6-14.4,13.77-23.64,18.39-10.42,5.2-21.85,8.3-33.18,10.76-11.99,2.61-23.81,4.23-36.11,4.18-13.07-.06-26.08-1.32-39.1-2.34-25.05-1.97-48.61-6.47-69.47-21.3-16.57-11.78-39.28-34.92-31.13-57.28,4.16-11.42,14.45-19.91,23.69-27.24,11.19-8.87,22.84-17.18,33.87-26.25,9.19-7.56,17.79-17.07,19.39-29.31,1.41-10.82-2.7-22.29-12.66-27.64-6.8-3.65-12.87,6.7-6.06,10.36h0Z"/>
    <path class="cls-1" d="M169.22,474.63c-6.92,1.06-13.82-.27-20.43-2.31-3.59-1.11-7.11-2.46-10.59-3.88-.82-.33-4.81-2.89-3.28-.68,1.25,1.81.64-2.24.76-3.44,1.27-13.14,6.2-25.59,13.5-36.51,4.3-6.44-6.09-12.45-10.36-6.06-5.11,7.65-9.12,16.03-11.77,24.85-1.16,3.88-2.03,7.83-2.64,11.83s-1.78,9.04-.79,13.08,4.34,5.57,7.93,7.07c4.04,1.7,8.1,3.36,12.27,4.74,9.38,3.11,18.79,4.38,28.59,2.89,7.61-1.16,4.38-12.73-3.19-11.57h0Z"/>
    <path class="cls-1" d="M352.68,564.41c-2.09,5.63-4.18,11.27-6.28,16.9-.99,2.67-1.98,5.34-2.97,8.01s-1.75,6.45-3.3,8.9c-.5.79-.53.63.09.3-.72.38-1.97.24-2.74.3-2.84.2-5.73.15-8.58.07-6.47-.18-12.86-.94-19.2-2.19-7.54-1.49-10.77,10.08-3.19,11.57,7.38,1.46,14.87,2.41,22.39,2.62,5.94.16,14.12,1.03,18.94-3.22s6.08-12.25,8.16-17.83c2.75-7.41,5.51-14.83,8.26-22.24s-8.9-10.38-11.57-3.19h0Z"/>
    <path class="cls-1" d="M457.59,189.76c-12.83-33.31-30.86-64.61-53.4-92.31-23.56-28.95-52.34-50.82-85.36-68.01C284.38,11.5,245.79-1.4,206.51.12c-27.24,1.05-64.82,9.93-67.62,42.68-1.49,17.49,11.76,36.22,30.83,33.72,17.87-2.34,25.87-24.07,11.1-35.7-7.35-5.79-16.73-6.79-25.79-6.77-8.56.02-17.16.3-25.7.87-17.15,1.14-34.37,3.72-50.19,10.71s-28.67,19.21-35.91,34.98c-3.78,8.24-6.32,16.92-7.88,25.84-1.65,9.36-3.08,19.27-2.08,28.77,1.73,16.48,14.38,33.65,32.87,29.87,7.22-1.48,14.2-6.67,16.08-14.05,2.22-8.71-3.09-16-11.84-16.94-17.58-1.9-35.75,5.58-48.31,17.71S2.04,181.97.35,199.78c-1.55,16.42,2.03,33.73,10.61,47.88,4.33,7.15,9.92,13.43,16.57,18.49,3.29,2.5,6.89,4.95,11.17,5.13,4.96.21,9.13-2.43,13.34-4.72,9.76-5.31,19.52-10.61,29.28-15.92l-6.06-10.36c-11.26,7.87-22.53,15.75-33.79,23.62-3.95,2.76-3.72,7.56,0,10.36,9.88,7.43,19.75,14.87,29.63,22.3l6.06-10.36c-15.94-8.13-30.43-18.41-43.22-30.93-4.88-4.78-12.77,1.29-9.42,7.27,9.15,16.35,16.78,33.4,22.8,51.15,2.46,7.27,14.06,4.15,11.57-3.19-6.34-18.7-14.36-36.78-24.01-54.01l-9.42,7.27c13.47,13.19,28.86,24.24,45.65,32.81,7.03,3.59,12.13-5.79,6.06-10.36-9.88-7.43-19.75-14.87-29.63-22.3v10.36c11.26-7.87,22.53-15.75,33.79-23.62,6.26-4.38.83-14.1-6.06-10.36-8.04,4.37-16.07,8.74-24.11,13.11-3.1,1.68-7.44,5.2-10.91,5.71-2.97.43-6.15-2.85-8.28-4.73-10.08-8.93-16.24-21.2-18.78-34.32-5.34-27.62,6.95-59.86,34.3-70.7,5.96-2.36,15.03-5.09,21.48-3.37,2.29.61,2.26,1.86.67,4s-4.5,3.3-7.04,3.62c-6.49.82-12.07-4.24-14.81-9.65-3.57-7.05-3.05-15.52-2.34-23.15,1.35-14.46,4.53-29.32,12.25-41.81,7.25-11.73,18.66-19.89,31.5-24.56s27.06-6.66,40.92-7.55c6.91-.44,13.83-.64,20.75-.76s15.33-.74,21.51,3.33c5.78,3.8,5.85,10.43-.36,13.94s-13.21.17-17.18-4.74c-6.81-8.41-4.87-21.91,1.69-29.35,7.6-8.63,19.27-12.78,30.24-14.97,15.35-3.08,31.56-2.96,47.05-.96,31.44,4.06,61.47,16.39,88.93,31.84,26.08,14.67,48.83,32.37,68.33,55.16,19.05,22.27,34.78,47.54,47.12,74.09,2.83,6.08,5.44,12.25,7.85,18.5,2.75,7.13,14.35,4.03,11.57-3.19h0Z"/>
    <path class="cls-1" d="M247.13,378.88c-19.62-12.63-43.25-15.02-65.88-17.72-24.01-2.86-48.83-5.04-72.5,1.3-20.07,5.38-38.48,17.1-51.82,33.04-13.46,16.09-25.67,39.81-16.72,60.85,7.42,17.44,30.4,28.41,45.43,12.95,5.93-6.1,9.25-15.41,6.27-23.69-3.24-9.01-12.08-13.71-21.15-14.73-19.72-2.22-38.72,11.03-49.36,26.64-13.03,19.13-14.59,44.31-8.73,66.2,9.91,36.94,42.16,66.89,79.44,74.94,19.14,4.13,45.47,4.28,56.43-15.29,5.43-9.69,4.2-20.91-6.9-25.27-8.43-3.32-17.86-1.95-25.75,2.2-19.44,10.22-23.22,34.06-16.43,53.34,7.12,20.22,23.4,36.22,41.87,46.46,20.81,11.53,44.68,16.22,68.19,18.07,19.18,1.51,43.34-.09,55.63-17.28,5.53-7.73,6.48-18.64-1.05-25.43-5.92-5.33-15.1-6.58-22.38-3.6-8.83,3.61-13.45,13.14-13.08,22.39.41,10.15,5.71,18.81,13.69,24.87,17.51,13.3,43.9,15.56,64.92,12.2,20.62-3.29,39.99-13.93,53.15-30.25,6.27-7.77,10.98-16.45,14-25.97,2.1-6.61-7.48-10.32-10.97-4.62-5.16,8.44-10.33,16.88-15.49,25.32-3,4.9,1.94,9.55,6.78,8.81,14.28-2.17,28.55-4.34,42.83-6.52l-3.19-11.57c-15.16,3.69-30.31,7.37-45.47,11.06-5.35,1.3-5.46,8.19-1.43,10.97,14.78,10.17,30.6,18.45,47.27,25.06,7.18,2.85,10.3-8.75,3.19-11.57-15.68-6.22-30.52-14.3-44.4-23.85-.48,3.66-.96,7.31-1.43,10.97,15.16-3.69,30.31-7.37,45.47-11.06,7.67-1.87,4.25-12.7-3.19-11.57-14.28,2.17-28.55,4.34-42.83,6.52l6.78,8.81c5.16-8.44,10.33-16.88,15.49-25.32l-10.97-4.62c-10.49,33.07-44.48,50.66-77.79,48.55-14.5-.92-37.82-5.15-43.37-21.03-1.85-5.29-1.69-13.68,4.25-16.42,3.89-1.8,11.21-.58,11.74,4.53.8,7.74-9.84,13.76-15.89,15.92-7.41,2.65-15.26,3.28-23.07,3.17-18.21-.27-36.97-3.31-54.18-9.28-16.01-5.56-30.92-14.63-42-27.58-10.59-12.37-19.19-31.78-11.68-47.77,2.8-5.96,8.23-10.72,14.5-12.75,3.05-.98,6.28-1.37,9.44-.74,4.32.86,5.95,2.61,4.3,6.95-6.03,15.91-28.97,14.61-42.39,11.93-29.41-5.88-55.12-26.36-67.7-53.56-13.71-29.65-9.72-72,22.78-87.48,6.23-2.97,13.86-4.84,20.69-3.04,6.35,1.67,10.36,6.79,7.59,13.26-2.48,5.8-8.49,9.28-14.69,7.96-7.11-1.52-12.71-8.02-14.87-14.73-5.28-16.41,5.52-34.94,15.92-46.98,10.61-12.28,24.37-21.89,39.8-27.06,18.26-6.11,37.71-6.1,56.71-4.52,18.12,1.51,36.89,3.21,54.51,7.87,8.41,2.22,16.31,5.42,23.64,10.14,6.51,4.19,12.54-6.19,6.06-10.36h0Z"/>
    <path class="cls-1" d="M210.63,83.89c7.72,0,7.73-12,0-12s-7.73,12,0,12h0Z"/>
    <path class="cls-1" d="M74.97,180.14c7.72,0,7.73-12,0-12s-7.73,12,0,12h0Z"/>
  </g>
</svg>