<?xml version="1.0" encoding="UTF-8"?>
<svg id="Layer_1" data-name="Layer 1" xmlns="http://www.w3.org/2000/svg" version="1.1" viewBox="0 0 927.5 878.4">
  <defs>
    <style>
      .cls-1 {
        fill: #194b82;
      }

      .cls-1, .cls-2, .cls-3, .cls-4, .cls-5 {
        stroke-width: 0px;
      }

      .cls-2 {
        fill: #03072b;
      }

      .cls-3 {
        fill: #0099bc;
      }

      .cls-4 {
        fill: #fff;
      }

      .cls-5 {
        fill: #0f2c59;
      }
    </style>
  </defs>
  <rect class="cls-2" x="38" y="109.1" width="34.2" height="36.6"/>
  <rect class="cls-3" x="72.2" y="109.1" width="34.2" height="36.6"/>
  <rect class="cls-1" x="106.5" y="109.1" width="34.2" height="36.6"/>
  <rect class="cls-2" x="38" y="145.7" width="34.2" height="36.6"/>
  <rect class="cls-3" x="72.2" y="145.7" width="34.2" height="36.6"/>
  <rect class="cls-1" x="106.5" y="145.7" width="34.2" height="36.6"/>
  <rect class="cls-2" x="37.7" y="180.7" width="34.2" height="36.6"/>
  <rect class="cls-3" x="71.9" y="180.7" width="34.2" height="36.6"/>
  <rect class="cls-1" x="106.2" y="180.7" width="34.2" height="36.6"/>
  <rect class="cls-2" x="37.7" y="217.3" width="34.2" height="36.6"/>
  <rect class="cls-3" x="71.9" y="217.3" width="34.2" height="36.6"/>
  <rect class="cls-1" x="106.2" y="217.3" width="34.2" height="36.6"/>
  <rect class="cls-2" x="37.7" y="254" width="34.2" height="36.6"/>
  <rect class="cls-3" x="71.9" y="254" width="34.2" height="36.6"/>
  <rect class="cls-1" x="106.2" y="254" width="34.2" height="36.6"/>
  <rect class="cls-1" x="140.7" y="109.1" width="34.2" height="36.6"/>
  <rect class="cls-1" x="175" y="109.1" width="34.2" height="36.6"/>
  <rect class="cls-1" x="209.2" y="109.1" width="34.2" height="36.6"/>
  <rect class="cls-2" x="140.7" y="145.7" width="34.2" height="36.6"/>
  <rect class="cls-2" x="175" y="145.7" width="34.2" height="36.6"/>
  <rect class="cls-2" x="209.2" y="145.7" width="34.2" height="36.6"/>
  <rect class="cls-2" x="140.4" y="180.7" width="34.2" height="36.6"/>
  <rect class="cls-2" x="174.6" y="180.7" width="34.2" height="36.6"/>
  <rect class="cls-2" x="208.9" y="180.7" width="34.2" height="36.6"/>
  <rect class="cls-2" x="140.4" y="217.3" width="34.2" height="36.6"/>
  <rect class="cls-2" x="174.6" y="217.3" width="34.2" height="36.6"/>
  <rect class="cls-3" x="208.9" y="217.3" width="34.2" height="36.6"/>
  <rect class="cls-2" x="140.4" y="254" width="34.2" height="36.6"/>
  <rect class="cls-1" x="174.6" y="254" width="34.2" height="36.6"/>
  <rect class="cls-3" x="208.9" y="254" width="34.2" height="36.6"/>
  <rect class="cls-1" x="243.4" y="109.1" width="34.2" height="36.6"/>
  <rect class="cls-1" x="277.7" y="109.1" width="34.2" height="36.6"/>
  <rect class="cls-1" x="311.9" y="109.1" width="34.2" height="36.6"/>
  <rect class="cls-2" x="243.4" y="145.7" width="34.2" height="36.6"/>
  <rect class="cls-2" x="277.7" y="145.7" width="34.2" height="36.6"/>
  <rect class="cls-2" x="311.9" y="145.7" width="34.2" height="36.6"/>
  <rect class="cls-2" x="243.1" y="180.7" width="34.2" height="36.6"/>
  <rect class="cls-2" x="277.4" y="180.7" width="34.2" height="36.6"/>
  <rect class="cls-2" x="311.6" y="180.7" width="34.2" height="36.6"/>
  <rect class="cls-3" x="243.1" y="217.3" width="34.2" height="36.6"/>
  <rect class="cls-3" x="277.4" y="217.3" width="34.2" height="36.6"/>
  <rect class="cls-3" x="311.6" y="217.3" width="34.2" height="36.6"/>
  <rect class="cls-1" x="243.1" y="254" width="34.2" height="36.6"/>
  <rect class="cls-1" x="277.4" y="254" width="34.2" height="36.6"/>
  <rect class="cls-1" x="311.6" y="254" width="34.2" height="36.6"/>
  <rect class="cls-2" x="37.7" y="290.6" width="34.2" height="36.6"/>
  <rect class="cls-3" x="71.9" y="290.6" width="34.2" height="36.6"/>
  <rect class="cls-1" x="106.2" y="290.6" width="34.2" height="36.6"/>
  <rect class="cls-2" x="37.7" y="327.2" width="34.2" height="36.6"/>
  <rect class="cls-3" x="71.9" y="327.2" width="34.2" height="36.6"/>
  <rect class="cls-1" x="106.2" y="327.2" width="34.2" height="36.6"/>
  <rect class="cls-2" x="37.7" y="363.8" width="34.2" height="36.6"/>
  <rect class="cls-3" x="71.9" y="363.8" width="34.2" height="36.6"/>
  <rect class="cls-1" x="106.2" y="363.8" width="34.2" height="36.6"/>
  <rect class="cls-2" x="37.7" y="400.4" width="34.2" height="36.6"/>
  <rect class="cls-3" x="71.9" y="400.4" width="34.2" height="36.6"/>
  <rect class="cls-5" x="106.2" y="400.4" width="34.2" height="36.6"/>
  <rect class="cls-2" x="37.7" y="437" width="34.2" height="36.6"/>
  <rect class="cls-3" x="71.9" y="437" width="34.2" height="36.6"/>
  <rect class="cls-1" x="106.2" y="437" width="34.2" height="36.6"/>
  <rect class="cls-2" x="37.7" y="473.6" width="34.2" height="36.6"/>
  <rect class="cls-3" x="71.9" y="473.6" width="34.2" height="36.6"/>
  <rect class="cls-5" x="106.2" y="473.6" width="34.2" height="36.6"/>
  <rect class="cls-2" x="140.4" y="290.6" width="34.2" height="36.6"/>
  <rect class="cls-1" x="174.6" y="290.6" width="34.2" height="36.6"/>
  <rect class="cls-3" x="208.9" y="290.6" width="34.2" height="36.6"/>
  <rect class="cls-2" x="140.4" y="327.2" width="34.2" height="36.6"/>
  <rect class="cls-1" x="174.6" y="327.2" width="34.2" height="36.6"/>
  <rect class="cls-3" x="208.9" y="327.2" width="34.2" height="36.6"/>
  <rect class="cls-2" x="140.4" y="363.8" width="34.2" height="36.6"/>
  <rect class="cls-1" x="174.6" y="363.8" width="34.2" height="36.6"/>
  <rect class="cls-3" x="208.9" y="363.8" width="34.2" height="36.6"/>
  <rect class="cls-2" x="140.4" y="400.4" width="34.2" height="36.6"/>
  <rect class="cls-1" x="174.6" y="400.4" width="34.2" height="36.6"/>
  <rect class="cls-3" x="208.9" y="400.4" width="34.2" height="36.6"/>
  <rect class="cls-2" x="140.4" y="437" width="34.2" height="36.6"/>
  <rect class="cls-1" x="174.6" y="437" width="34.2" height="36.6"/>
  <rect class="cls-3" x="208.9" y="437" width="34.2" height="36.6"/>
  <rect class="cls-2" x="140.4" y="473.6" width="34.2" height="36.6"/>
  <rect class="cls-1" x="174.6" y="473.6" width="34.2" height="36.6"/>
  <rect class="cls-3" x="208.9" y="473.6" width="34.2" height="36.6"/>
  <rect class="cls-5" x="243.1" y="290.6" width="34.2" height="36.6"/>
  <rect class="cls-2" x="277.4" y="290.6" width="34.2" height="36.6"/>
  <rect class="cls-2" x="311.6" y="290.6" width="34.2" height="36.6"/>
  <rect class="cls-5" x="243.1" y="327.2" width="34.2" height="36.6"/>
  <rect class="cls-2" x="277.4" y="327.2" width="34.2" height="36.6"/>
  <rect class="cls-2" x="311.6" y="327.2" width="34.2" height="36.6"/>
  <rect class="cls-5" x="243.1" y="363.8" width="34.2" height="36.6"/>
  <rect class="cls-2" x="277.4" y="363.8" width="34.2" height="36.6"/>
  <rect class="cls-2" x="311.6" y="363.8" width="34.2" height="36.6"/>
  <rect class="cls-5" x="243.1" y="400.4" width="34.2" height="36.6"/>
  <rect class="cls-2" x="277.4" y="400.4" width="34.2" height="36.6"/>
  <rect class="cls-2" x="311.6" y="400.4" width="34.2" height="36.6"/>
  <rect class="cls-3" x="243.1" y="437" width="34.2" height="36.6"/>
  <rect class="cls-3" x="277.4" y="437" width="34.2" height="36.6"/>
  <rect class="cls-3" x="311.6" y="437" width="34.2" height="36.6"/>
  <rect class="cls-1" x="243.1" y="473.6" width="34.2" height="36.6"/>
  <rect class="cls-5" x="277.4" y="473.6" width="34.2" height="36.6"/>
  <rect class="cls-5" x="311.6" y="473.6" width="34.2" height="36.6"/>
  <rect class="cls-5" x="346.5" y="109.1" width="34.2" height="36.6"/>
  <rect class="cls-1" x="380.7" y="109.1" width="34.2" height="36.6"/>
  <rect class="cls-5" x="414.9" y="109.1" width="34.2" height="36.6"/>
  <rect class="cls-2" x="346.5" y="145.7" width="34.2" height="36.6"/>
  <rect class="cls-2" x="380.7" y="145.7" width="34.2" height="36.6"/>
  <rect class="cls-2" x="414.9" y="145.7" width="34.2" height="36.6"/>
  <rect class="cls-2" x="346.2" y="180.7" width="34.2" height="36.6"/>
  <rect class="cls-2" x="380.4" y="180.7" width="34.2" height="36.6"/>
  <rect class="cls-2" x="414.6" y="180.7" width="34.2" height="36.6"/>
  <rect class="cls-1" x="346.2" y="217.3" width="34.2" height="36.6"/>
  <rect class="cls-5" x="380.4" y="217.3" width="34.2" height="36.6"/>
  <rect class="cls-2" x="414.6" y="217.3" width="34.2" height="36.6"/>
  <rect class="cls-3" x="346.2" y="254" width="34.2" height="36.6"/>
  <rect class="cls-3" x="380.4" y="254" width="34.2" height="36.6"/>
  <rect class="cls-5" x="414.6" y="254" width="34.2" height="36.6"/>
  <rect class="cls-1" x="449.2" y="109.1" width="34.2" height="36.6"/>
  <rect class="cls-5" x="483.4" y="109.1" width="34.2" height="36.6"/>
  <rect class="cls-5" x="517.7" y="109.1" width="34.2" height="36.6"/>
  <rect class="cls-2" x="449.2" y="145.7" width="34.2" height="36.6"/>
  <rect class="cls-2" x="483.4" y="145.7" width="34.2" height="36.6"/>
  <rect class="cls-2" x="517.7" y="145.7" width="34.2" height="36.6"/>
  <rect class="cls-2" x="448.9" y="180.7" width="34.2" height="36.6"/>
  <rect class="cls-2" x="483.1" y="180.7" width="34.2" height="36.6"/>
  <rect class="cls-2" x="517.3" y="180.7" width="34.2" height="36.6"/>
  <rect class="cls-2" x="448.9" y="217.3" width="34.2" height="36.6"/>
  <rect class="cls-2" x="483.1" y="217.3" width="34.2" height="36.6"/>
  <rect class="cls-2" x="517.3" y="217.3" width="34.2" height="36.6"/>
  <rect class="cls-2" x="448.9" y="254" width="34.2" height="36.6"/>
  <rect class="cls-2" x="483.1" y="254" width="34.2" height="36.6"/>
  <rect class="cls-2" x="517.3" y="254" width="34.2" height="36.6"/>
  <rect class="cls-5" x="551.9" y="109.1" width="34.2" height="36.6"/>
  <rect class="cls-1" x="586.1" y="109.1" width="34.2" height="36.6"/>
  <rect class="cls-5" x="620.4" y="109.1" width="34.2" height="36.6"/>
  <rect class="cls-2" x="551.9" y="145.7" width="34.2" height="36.6"/>
  <rect class="cls-2" x="586.1" y="145.7" width="34.2" height="36.6"/>
  <rect class="cls-2" x="620.4" y="145.7" width="34.2" height="36.6"/>
  <rect class="cls-2" x="551.6" y="180.7" width="34.2" height="36.6"/>
  <rect class="cls-2" x="585.8" y="180.7" width="34.2" height="36.6"/>
  <rect class="cls-2" x="620.1" y="180.7" width="34.2" height="36.6"/>
  <rect class="cls-2" x="551.6" y="217.3" width="34.2" height="36.6"/>
  <rect class="cls-2" x="585.8" y="217.3" width="34.2" height="36.6"/>
  <rect class="cls-2" x="620.1" y="217.3" width="34.2" height="36.6"/>
  <rect class="cls-2" x="551.6" y="254" width="34.2" height="36.6"/>
  <rect class="cls-2" x="585.8" y="254" width="34.2" height="36.6"/>
  <rect class="cls-2" x="620.1" y="254" width="34.2" height="36.6"/>
  <rect class="cls-5" x="654.6" y="109.1" width="34.2" height="36.6"/>
  <rect class="cls-2" x="654.6" y="145.7" width="34.2" height="36.6"/>
  <rect class="cls-2" x="654.3" y="180.7" width="34.2" height="36.6"/>
  <rect class="cls-2" x="654.3" y="217.3" width="34.2" height="36.6"/>
  <rect class="cls-2" x="654.3" y="254" width="34.2" height="36.6"/>
  <rect class="cls-5" x="346.2" y="290.6" width="34.2" height="36.6"/>
  <rect class="cls-5" x="380.4" y="290.6" width="34.2" height="36.6"/>
  <rect class="cls-3" x="414.6" y="290.6" width="34.2" height="36.6"/>
  <rect class="cls-2" x="346.2" y="327.2" width="34.2" height="36.6"/>
  <rect class="cls-5" x="380.4" y="327.2" width="34.2" height="36.6"/>
  <rect class="cls-3" x="414.6" y="327.2" width="34.2" height="36.6"/>
  <rect class="cls-2" x="346.2" y="363.8" width="34.2" height="36.6"/>
  <rect class="cls-5" x="380.4" y="363.8" width="34.2" height="36.6"/>
  <rect class="cls-3" x="414.6" y="363.8" width="34.2" height="36.6"/>
  <rect class="cls-3" x="346.2" y="400.4" width="34.2" height="36.6"/>
  <rect class="cls-3" x="380.4" y="400.4" width="34.2" height="36.6"/>
  <rect class="cls-5" x="414.6" y="400.4" width="34.2" height="36.6"/>
  <rect class="cls-5" x="346.2" y="437" width="34.2" height="36.6"/>
  <rect class="cls-5" x="380.4" y="437" width="34.2" height="36.6"/>
  <rect class="cls-2" x="414.6" y="437" width="34.2" height="36.6"/>
  <rect class="cls-2" x="346.2" y="473.6" width="34.2" height="36.6"/>
  <rect class="cls-2" x="380.4" y="473.6" width="34.2" height="36.6"/>
  <rect class="cls-2" x="414.6" y="473.6" width="34.2" height="36.6"/>
  <rect class="cls-5" x="448.9" y="290.6" width="34.2" height="36.6"/>
  <rect class="cls-2" x="483.1" y="290.6" width="34.2" height="36.6"/>
  <rect class="cls-2" x="517.3" y="290.6" width="34.2" height="36.6"/>
  <rect class="cls-5" x="448.9" y="327.2" width="34.2" height="36.6"/>
  <rect class="cls-2" x="483.1" y="327.2" width="34.2" height="36.6"/>
  <rect class="cls-2" x="517.3" y="327.2" width="34.2" height="36.6"/>
  <rect class="cls-5" x="448.9" y="363.8" width="34.2" height="36.6"/>
  <rect class="cls-2" x="483.1" y="363.8" width="34.2" height="36.6"/>
  <rect class="cls-2" x="517.3" y="363.8" width="34.2" height="36.6"/>
  <rect class="cls-2" x="448.9" y="400.4" width="34.2" height="36.6"/>
  <rect class="cls-2" x="483.1" y="400.4" width="34.2" height="36.6"/>
  <rect class="cls-3" x="517.3" y="400.4" width="34.2" height="36.6"/>
  <rect class="cls-2" x="448.9" y="437" width="34.2" height="36.6"/>
  <rect class="cls-2" x="483.1" y="437" width="34.2" height="36.6"/>
  <rect class="cls-1" x="517.3" y="437" width="34.2" height="36.6"/>
  <rect class="cls-2" x="448.9" y="473.6" width="34.2" height="36.6"/>
  <rect class="cls-2" x="483.1" y="473.6" width="34.2" height="36.6"/>
  <rect class="cls-2" x="517.3" y="473.6" width="34.2" height="36.6"/>
  <rect class="cls-2" x="551.6" y="290.6" width="34.2" height="36.6"/>
  <rect class="cls-2" x="585.8" y="290.6" width="34.2" height="36.6"/>
  <rect class="cls-2" x="620.1" y="290.6" width="34.2" height="36.6"/>
  <rect class="cls-2" x="551.6" y="327.2" width="34.2" height="36.6"/>
  <rect class="cls-3" x="585.8" y="327.2" width="34.2" height="36.6"/>
  <rect class="cls-3" x="620.1" y="327.2" width="34.2" height="36.6"/>
  <rect class="cls-3" x="551.6" y="363.8" width="34.2" height="36.6"/>
  <rect class="cls-1" x="585.8" y="363.8" width="34.2" height="36.6"/>
  <rect class="cls-1" x="620.1" y="363.8" width="34.2" height="36.6"/>
  <rect class="cls-1" x="551.6" y="400.4" width="34.2" height="36.6"/>
  <rect class="cls-2" x="585.8" y="400.4" width="34.2" height="36.6"/>
  <rect class="cls-2" x="620.1" y="400.4" width="34.2" height="36.6"/>
  <rect class="cls-3" x="551.6" y="437" width="34.2" height="36.6"/>
  <rect class="cls-1" x="585.8" y="437" width="34.2" height="36.6"/>
  <rect class="cls-5" x="620.1" y="437" width="34.2" height="36.6"/>
  <rect class="cls-1" x="551.6" y="473.6" width="34.2" height="36.6"/>
  <rect class="cls-3" x="585.8" y="473.6" width="34.2" height="36.6"/>
  <rect class="cls-3" x="620.1" y="473.6" width="34.2" height="36.6"/>
  <rect class="cls-2" x="654.3" y="290.6" width="34.2" height="36.6"/>
  <rect class="cls-3" x="654.3" y="327.2" width="34.2" height="36.6"/>
  <rect class="cls-5" x="654.3" y="363.8" width="34.2" height="36.6"/>
  <rect class="cls-2" x="654.3" y="400.4" width="34.2" height="36.6"/>
  <rect class="cls-5" x="654.3" y="437" width="34.2" height="36.6"/>
  <rect class="cls-3" x="654.3" y="473.6" width="34.2" height="36.6"/>
  <rect class="cls-2" x="37.7" y="36.7" width="34.2" height="36.6"/>
  <rect class="cls-2" x="71.9" y="36.7" width="34.2" height="36.6"/>
  <rect class="cls-2" x="106.2" y="36.7" width="34.2" height="36.6"/>
  <polyline class="cls-2" points="37.7 109.9 37.7 73.3 71.9 73.3 71.9 109.9"/>
  <polyline class="cls-3" points="71.9 109.9 71.9 73.3 106.2 73.3 106.2 109.9"/>
  <polyline class="cls-3" points="106.2 109.9 106.2 73.3 140.4 73.3 140.4 109.9"/>
  <rect class="cls-2" x="140.4" y="36.7" width="34.2" height="36.6"/>
  <rect class="cls-2" x="174.6" y="36.7" width="34.2" height="36.6"/>
  <rect class="cls-2" x="208.9" y="36.7" width="34.2" height="36.6"/>
  <polyline class="cls-3" points="140.4 109.9 140.4 73.3 174.6 73.3 174.6 109.9"/>
  <polyline class="cls-3" points="174.6 109.9 174.6 73.3 208.9 73.3 208.9 109.9"/>
  <polyline class="cls-3" points="208.9 109.9 208.9 73.3 243.1 73.3 243.1 109.9"/>
  <rect class="cls-2" x="243.1" y="36.7" width="34.2" height="36.6"/>
  <rect class="cls-2" x="277.4" y="36.7" width="34.2" height="36.6"/>
  <rect class="cls-2" x="311.6" y="36.7" width="34.2" height="36.6"/>
  <polyline class="cls-3" points="243.1 109.9 243.1 73.3 277.4 73.3 277.4 109.9"/>
  <polyline class="cls-3" points="277.4 109.9 277.4 73.3 311.6 73.3 311.6 109.9"/>
  <polyline class="cls-3" points="311.6 109.9 311.6 73.3 345.8 73.3 345.8 109.9"/>
  <rect class="cls-2" x="346.2" y="36.7" width="34.2" height="36.6"/>
  <rect class="cls-2" x="380.4" y="36.7" width="34.2" height="36.6"/>
  <rect class="cls-2" x="414.6" y="36.7" width="34.2" height="36.6"/>
  <polyline class="cls-3" points="346.2 109.9 346.2 73.3 380.4 73.3 380.4 109.9"/>
  <polyline class="cls-3" points="380.4 109.9 380.4 73.3 414.6 73.3 414.6 109.9"/>
  <polyline class="cls-3" points="414.6 109.9 414.6 73.3 448.9 73.3 448.9 109.9"/>
  <rect class="cls-2" x="448.9" y="36.7" width="34.2" height="36.6"/>
  <rect class="cls-2" x="483.1" y="36.7" width="34.2" height="36.6"/>
  <rect class="cls-2" x="517.3" y="36.7" width="34.2" height="36.6"/>
  <polyline class="cls-3" points="448.9 109.9 448.9 73.3 483.1 73.3 483.1 109.9"/>
  <polyline class="cls-3" points="483.1 109.9 483.1 73.3 517.3 73.3 517.3 109.9"/>
  <polyline class="cls-3" points="517.3 109.9 517.3 73.3 551.6 73.3 551.6 109.9"/>
  <rect class="cls-2" x="551.6" y="36.7" width="34.2" height="36.6"/>
  <rect class="cls-2" x="585.8" y="36.7" width="34.2" height="36.6"/>
  <rect class="cls-2" x="620.1" y="36.7" width="34.2" height="36.6"/>
  <polyline class="cls-3" points="551.6 109.9 551.6 73.3 585.8 73.3 585.8 109.9"/>
  <polyline class="cls-3" points="585.8 109.9 585.8 73.3 620.1 73.3 620.1 109.9"/>
  <polyline class="cls-3" points="620.1 109.9 620.1 73.3 654.3 73.3 654.3 109.9"/>
  <rect class="cls-2" x="654.3" y="36.7" width="34.2" height="36.6"/>
  <polyline class="cls-3" points="654.3 109.9 654.3 73.3 688.5 73.3 688.5 109.9"/>
  <rect class="cls-2" x="37.9" y="510.2" width="34.2" height="36.6"/>
  <rect class="cls-3" x="72.1" y="510.2" width="34.2" height="36.6"/>
  <rect class="cls-1" x="106.3" y="510.2" width="34.2" height="36.6"/>
  <rect class="cls-2" x="37.9" y="546.8" width="34.2" height="36.6"/>
  <rect class="cls-3" x="72.1" y="546.8" width="34.2" height="36.6"/>
  <rect class="cls-5" x="106.3" y="546.8" width="34.2" height="36.6"/>
  <rect class="cls-2" x="37.9" y="583.4" width="34.2" height="36.6"/>
  <rect class="cls-3" x="72.1" y="583.4" width="34.2" height="36.6"/>
  <rect class="cls-5" x="106.3" y="583.4" width="34.2" height="36.6"/>
  <rect class="cls-2" x="140.6" y="510.2" width="34.2" height="36.6"/>
  <rect class="cls-1" x="174.8" y="510.2" width="34.2" height="36.6"/>
  <rect class="cls-3" x="209" y="510.2" width="34.2" height="36.6"/>
  <rect class="cls-2" x="140.6" y="546.8" width="34.2" height="36.6"/>
  <rect class="cls-1" x="174.8" y="546.8" width="34.2" height="36.6"/>
  <rect class="cls-3" x="209" y="546.8" width="34.2" height="36.6"/>
  <rect class="cls-2" x="140.6" y="583.4" width="34.2" height="36.6"/>
  <rect class="cls-1" x="174.8" y="583.4" width="34.2" height="36.6"/>
  <rect class="cls-3" x="209" y="583.4" width="34.2" height="36.6"/>
  <rect class="cls-5" x="243.3" y="510.2" width="34.2" height="36.6"/>
  <rect class="cls-2" x="277.5" y="510.2" width="34.2" height="36.6"/>
  <rect class="cls-2" x="311.8" y="510.2" width="34.2" height="36.6"/>
  <rect class="cls-5" x="243.3" y="546.8" width="34.2" height="36.6"/>
  <rect class="cls-2" x="277.5" y="546.8" width="34.2" height="36.6"/>
  <rect class="cls-2" x="311.8" y="546.8" width="34.2" height="36.6"/>
  <rect class="cls-5" x="243.3" y="583.4" width="34.2" height="36.6"/>
  <rect class="cls-2" x="277.5" y="583.4" width="34.2" height="36.6"/>
  <rect class="cls-2" x="311.8" y="583.4" width="34.2" height="36.6"/>
  <rect class="cls-2" x="37.9" y="620.1" width="34.2" height="36.6"/>
  <rect class="cls-3" x="72.1" y="620.1" width="34.2" height="36.6"/>
  <rect class="cls-5" x="106.3" y="620.1" width="34.2" height="36.6"/>
  <rect class="cls-2" x="37.9" y="656.7" width="34.2" height="36.6"/>
  <rect class="cls-3" x="72.1" y="656.7" width="34.2" height="36.6"/>
  <rect class="cls-1" x="106.3" y="656.7" width="34.2" height="36.6"/>
  <rect class="cls-2" x="37.9" y="693.3" width="34.2" height="36.6"/>
  <rect class="cls-3" x="72.1" y="693.3" width="34.2" height="36.6"/>
  <rect class="cls-5" x="106.3" y="693.3" width="34.2" height="36.6"/>
  <rect class="cls-2" x="37.9" y="729.9" width="34.2" height="36.6"/>
  <rect class="cls-3" x="72.1" y="729.9" width="34.2" height="36.6"/>
  <rect class="cls-5" x="106.3" y="729.9" width="34.2" height="36.6"/>
  <rect class="cls-2" x="37.9" y="766.5" width="34.2" height="36.6"/>
  <rect class="cls-3" x="72.1" y="766.5" width="34.2" height="36.6"/>
  <rect class="cls-3" x="106.3" y="766.5" width="34.2" height="36.6"/>
  <rect class="cls-2" x="37.9" y="803.1" width="34.2" height="36.6"/>
  <rect class="cls-2" x="72.1" y="803.1" width="34.2" height="36.6"/>
  <rect class="cls-2" x="106.3" y="803.1" width="34.2" height="36.6"/>
  <rect class="cls-2" x="140.6" y="620.1" width="34.2" height="36.6"/>
  <rect class="cls-1" x="174.8" y="620.1" width="34.2" height="36.6"/>
  <rect class="cls-3" x="209" y="620.1" width="34.2" height="36.6"/>
  <rect class="cls-2" x="140.6" y="656.7" width="34.2" height="36.6"/>
  <rect class="cls-2" x="174.8" y="656.7" width="34.2" height="36.6"/>
  <rect class="cls-5" x="209" y="656.7" width="34.2" height="36.6"/>
  <rect class="cls-2" x="140.6" y="693.3" width="34.2" height="36.6"/>
  <rect class="cls-2" x="174.8" y="693.3" width="34.2" height="36.6"/>
  <rect class="cls-2" x="209" y="693.3" width="34.2" height="36.6"/>
  <rect class="cls-5" x="140.6" y="729.9" width="34.2" height="36.6"/>
  <rect class="cls-5" x="174.8" y="729.9" width="34.2" height="36.6"/>
  <rect class="cls-2" x="209" y="729.9" width="34.2" height="36.6"/>
  <rect class="cls-3" x="140.6" y="766.5" width="34.2" height="36.6"/>
  <rect class="cls-3" x="174.8" y="766.5" width="34.2" height="36.6"/>
  <rect class="cls-3" x="209" y="766.5" width="34.2" height="36.6"/>
  <rect class="cls-2" x="140.6" y="803.1" width="34.2" height="36.6"/>
  <rect class="cls-2" x="174.8" y="803.1" width="34.2" height="36.6"/>
  <rect class="cls-2" x="209" y="803.1" width="34.2" height="36.6"/>
  <rect class="cls-5" x="243.3" y="620.1" width="34.2" height="36.6"/>
  <rect class="cls-2" x="277.5" y="620.1" width="34.2" height="36.6"/>
  <rect class="cls-2" x="311.8" y="620.1" width="34.2" height="36.6"/>
  <rect class="cls-2" x="243.3" y="656.7" width="34.2" height="36.6"/>
  <rect class="cls-2" x="277.5" y="656.7" width="34.2" height="36.6"/>
  <rect class="cls-2" x="311.8" y="656.7" width="34.2" height="36.6"/>
  <rect class="cls-2" x="243.3" y="693.3" width="34.2" height="36.6"/>
  <rect class="cls-2" x="277.5" y="693.3" width="34.2" height="36.6"/>
  <rect class="cls-2" x="311.8" y="693.3" width="34.2" height="36.6"/>
  <rect class="cls-5" x="243.3" y="729.9" width="34.2" height="36.6"/>
  <rect class="cls-2" x="277.5" y="729.9" width="34.2" height="36.6"/>
  <rect class="cls-2" x="311.8" y="729.9" width="34.2" height="36.6"/>
  <rect class="cls-3" x="243.3" y="766.5" width="34.2" height="36.6"/>
  <rect class="cls-3" x="277.5" y="766.5" width="34.2" height="36.6"/>
  <rect class="cls-3" x="311.8" y="766.5" width="34.2" height="36.6"/>
  <rect class="cls-2" x="243.3" y="803.1" width="34.2" height="36.6"/>
  <rect class="cls-2" x="277.5" y="803.1" width="34.2" height="36.6"/>
  <rect class="cls-2" x="311.8" y="803.1" width="34.2" height="36.6"/>
  <rect class="cls-2" x="346.3" y="510.2" width="34.2" height="36.6"/>
  <rect class="cls-2" x="380.6" y="510.2" width="34.2" height="36.6"/>
  <rect class="cls-2" x="414.8" y="510.2" width="34.2" height="36.6"/>
  <rect class="cls-2" x="346.3" y="546.8" width="34.2" height="36.6"/>
  <rect class="cls-2" x="380.6" y="546.8" width="34.2" height="36.6"/>
  <rect class="cls-2" x="414.8" y="546.8" width="34.2" height="36.6"/>
  <rect class="cls-2" x="346.3" y="583.4" width="34.2" height="36.6"/>
  <rect class="cls-2" x="380.6" y="583.4" width="34.2" height="36.6"/>
  <rect class="cls-2" x="414.8" y="583.4" width="34.2" height="36.6"/>
  <rect class="cls-2" x="449" y="510.2" width="34.2" height="36.6"/>
  <rect class="cls-2" x="483.3" y="510.2" width="34.2" height="36.6"/>
  <rect class="cls-2" x="517.5" y="510.2" width="34.2" height="36.6"/>
  <rect class="cls-2" x="449" y="546.8" width="34.2" height="36.6"/>
  <rect class="cls-2" x="483.3" y="546.8" width="34.2" height="36.6"/>
  <rect class="cls-2" x="517.5" y="546.8" width="34.2" height="36.6"/>
  <rect class="cls-2" x="449" y="583.4" width="34.2" height="36.6"/>
  <rect class="cls-2" x="483.3" y="583.4" width="34.2" height="36.6"/>
  <rect class="cls-3" x="517.5" y="583.4" width="34.2" height="36.6"/>
  <rect class="cls-2" x="551.8" y="510.2" width="34.2" height="36.6"/>
  <rect class="cls-1" x="586" y="510.2" width="34.2" height="36.6"/>
  <rect class="cls-1" x="620.2" y="510.2" width="34.2" height="36.6"/>
  <rect class="cls-2" x="551.8" y="546.8" width="34.2" height="36.6"/>
  <rect class="cls-2" x="586" y="546.8" width="34.2" height="36.6"/>
  <rect class="cls-2" x="620.2" y="546.8" width="34.2" height="36.6"/>
  <rect class="cls-5" x="551.8" y="583.4" width="34.2" height="36.6"/>
  <rect class="cls-2" x="586" y="583.4" width="34.2" height="36.6"/>
  <rect class="cls-2" x="620.2" y="583.4" width="34.2" height="36.6"/>
  <rect class="cls-1" x="654.5" y="510.2" width="34.2" height="36.6"/>
  <rect class="cls-2" x="654.5" y="546.8" width="34.2" height="36.6"/>
  <rect class="cls-2" x="654.5" y="583.4" width="34.2" height="36.6"/>
  <rect class="cls-2" x="346.3" y="620.1" width="34.2" height="36.6"/>
  <rect class="cls-2" x="380.6" y="620.1" width="34.2" height="36.6"/>
  <rect class="cls-2" x="414.8" y="620.1" width="34.2" height="36.6"/>
  <rect class="cls-2" x="346.3" y="656.7" width="34.2" height="36.6"/>
  <rect class="cls-2" x="380.6" y="656.7" width="34.2" height="36.6"/>
  <rect class="cls-2" x="414.8" y="656.7" width="34.2" height="36.6"/>
  <rect class="cls-2" x="346.3" y="693.3" width="34.2" height="36.6"/>
  <rect class="cls-2" x="380.6" y="693.3" width="34.2" height="36.6"/>
  <rect class="cls-2" x="414.8" y="693.3" width="34.2" height="36.6"/>
  <rect class="cls-2" x="346.3" y="729.9" width="34.2" height="36.6"/>
  <rect class="cls-5" x="380.6" y="729.9" width="34.2" height="36.6"/>
  <rect class="cls-2" x="414.8" y="729.9" width="34.2" height="36.6"/>
  <rect class="cls-3" x="346.3" y="766.5" width="34.2" height="36.6"/>
  <rect class="cls-3" x="380.6" y="766.5" width="34.2" height="36.6"/>
  <rect class="cls-3" x="414.8" y="766.5" width="34.2" height="36.6"/>
  <rect class="cls-2" x="346.3" y="803.1" width="34.2" height="36.6"/>
  <rect class="cls-2" x="380.6" y="803.1" width="34.2" height="36.6"/>
  <rect class="cls-2" x="414.8" y="803.1" width="34.2" height="36.6"/>
  <rect class="cls-2" x="449" y="620.1" width="34.2" height="36.6"/>
  <rect class="cls-2" x="483.3" y="620.1" width="34.2" height="36.6"/>
  <rect class="cls-1" x="517.5" y="620.1" width="34.2" height="36.6"/>
  <rect class="cls-2" x="449" y="656.7" width="34.2" height="36.6"/>
  <rect class="cls-2" x="483.3" y="656.7" width="34.2" height="36.6"/>
  <rect class="cls-2" x="517.5" y="656.7" width="34.2" height="36.6"/>
  <rect class="cls-2" x="449" y="693.3" width="34.2" height="36.6"/>
  <rect class="cls-2" x="483.3" y="693.3" width="34.2" height="36.6"/>
  <rect class="cls-2" x="517.5" y="693.3" width="34.2" height="36.6"/>
  <rect class="cls-2" x="449" y="729.9" width="34.2" height="36.6"/>
  <rect class="cls-2" x="483.3" y="729.9" width="34.2" height="36.6"/>
  <rect class="cls-2" x="517.5" y="729.9" width="34.2" height="36.6"/>
  <rect class="cls-3" x="449" y="766.5" width="34.2" height="36.6"/>
  <rect class="cls-3" x="483.3" y="766.5" width="34.2" height="36.6"/>
  <rect class="cls-3" x="517.5" y="766.5" width="34.2" height="36.6"/>
  <rect class="cls-2" x="449" y="803.1" width="34.2" height="36.6"/>
  <rect class="cls-2" x="483.3" y="803.1" width="34.2" height="36.6"/>
  <rect class="cls-2" x="517.5" y="803.1" width="34.2" height="36.6"/>
  <rect class="cls-3" x="551.8" y="620.1" width="34.2" height="36.6"/>
  <rect class="cls-3" x="586" y="620.1" width="34.2" height="36.6"/>
  <rect class="cls-3" x="620.2" y="620.1" width="34.2" height="36.6"/>
  <rect class="cls-1" x="551.8" y="656.7" width="34.2" height="36.6"/>
  <rect class="cls-1" x="586" y="656.7" width="34.2" height="36.6"/>
  <rect class="cls-5" x="620.2" y="656.7" width="34.2" height="36.6"/>
  <rect class="cls-2" x="551.8" y="693.3" width="34.2" height="36.6"/>
  <rect class="cls-2" x="586" y="693.3" width="34.2" height="36.6"/>
  <rect class="cls-2" x="620.2" y="693.3" width="34.2" height="36.6"/>
  <rect class="cls-2" x="551.8" y="729.9" width="34.2" height="36.6"/>
  <rect class="cls-2" x="586" y="729.9" width="34.2" height="36.6"/>
  <rect class="cls-2" x="620.2" y="729.9" width="34.2" height="36.6"/>
  <rect class="cls-3" x="551.8" y="766.5" width="34.2" height="36.6"/>
  <rect class="cls-3" x="586" y="766.5" width="34.2" height="36.6"/>
  <rect class="cls-3" x="620.2" y="766.5" width="34.2" height="36.6"/>
  <rect class="cls-2" x="551.8" y="803.1" width="34.2" height="36.6"/>
  <rect class="cls-2" x="586" y="803.1" width="34.2" height="36.6"/>
  <rect class="cls-2" x="620.2" y="803.1" width="34.2" height="36.6"/>
  <rect class="cls-3" x="654.5" y="620.1" width="34.2" height="36.6"/>
  <rect class="cls-5" x="654.5" y="656.7" width="34.2" height="36.6"/>
  <rect class="cls-2" x="654.5" y="693.3" width="34.2" height="36.6"/>
  <rect class="cls-2" x="654.5" y="729.9" width="34.2" height="36.6"/>
  <rect class="cls-3" x="654.5" y="766.5" width="34.2" height="36.6"/>
  <rect class="cls-2" x="654.5" y="803.1" width="34.2" height="36.6"/>
  <rect class="cls-5" x="688.8" y="109.1" width="34.2" height="36.6"/>
  <rect class="cls-5" x="723" y="109.1" width="34.2" height="36.6"/>
  <rect class="cls-5" x="757.3" y="109.1" width="34.2" height="36.6"/>
  <rect class="cls-2" x="688.8" y="145.7" width="34.2" height="36.6"/>
  <rect class="cls-2" x="723" y="145.7" width="34.2" height="36.6"/>
  <rect class="cls-2" x="757.3" y="145.7" width="34.2" height="36.6"/>
  <rect class="cls-2" x="688.5" y="180.7" width="34.2" height="36.6"/>
  <rect class="cls-2" x="722.7" y="180.7" width="34.2" height="36.6"/>
  <rect class="cls-2" x="757" y="180.7" width="34.2" height="36.6"/>
  <rect class="cls-2" x="688.5" y="217.3" width="34.2" height="36.6"/>
  <rect class="cls-2" x="722.7" y="217.3" width="34.2" height="36.6"/>
  <rect class="cls-2" x="757" y="217.3" width="34.2" height="36.6"/>
  <rect class="cls-2" x="688.5" y="254" width="34.2" height="36.6"/>
  <rect class="cls-2" x="722.7" y="254" width="34.2" height="36.6"/>
  <rect class="cls-2" x="757" y="254" width="34.2" height="36.6"/>
  <rect class="cls-5" x="791.5" y="109.1" width="34.2" height="36.6"/>
  <rect class="cls-3" x="825.8" y="109.1" width="34.2" height="36.6"/>
  <rect class="cls-5" x="860" y="109.1" width="34.2" height="36.6"/>
  <rect class="cls-5" x="791.5" y="145.7" width="34.2" height="36.6"/>
  <rect class="cls-3" x="825.8" y="145.7" width="34.2" height="36.6"/>
  <rect class="cls-5" x="860" y="145.7" width="34.2" height="36.6"/>
  <rect class="cls-2" x="791.2" y="180.7" width="34.2" height="36.6"/>
  <rect class="cls-3" x="825.4" y="180.7" width="34.2" height="36.6"/>
  <rect class="cls-5" x="859.7" y="180.7" width="34.2" height="36.6"/>
  <rect class="cls-2" x="791.2" y="217.3" width="34.2" height="36.6"/>
  <rect class="cls-3" x="825.4" y="217.3" width="34.2" height="36.6"/>
  <rect class="cls-5" x="859.7" y="217.3" width="34.2" height="36.6"/>
  <rect class="cls-5" x="791.2" y="254" width="34.2" height="36.6"/>
  <rect class="cls-3" x="825.4" y="254" width="34.2" height="36.6"/>
  <rect class="cls-5" x="859.7" y="254" width="34.2" height="36.6"/>
  <rect class="cls-2" x="688.5" y="290.6" width="34.2" height="36.6"/>
  <rect class="cls-2" x="722.7" y="290.6" width="34.2" height="36.6"/>
  <rect class="cls-2" x="757" y="290.6" width="34.2" height="36.6"/>
  <rect class="cls-5" x="688.5" y="327.2" width="34.2" height="36.6"/>
  <rect class="cls-2" x="722.7" y="327.2" width="34.2" height="36.6"/>
  <rect class="cls-2" x="757" y="327.2" width="34.2" height="36.6"/>
  <rect class="cls-3" x="688.5" y="363.8" width="34.2" height="36.6"/>
  <rect class="cls-5" x="722.7" y="363.8" width="34.2" height="36.6"/>
  <rect class="cls-2" x="757" y="363.8" width="34.2" height="36.6"/>
  <rect class="cls-5" x="688.5" y="400.4" width="34.2" height="36.6"/>
  <rect class="cls-2" x="722.7" y="400.4" width="34.2" height="36.6"/>
  <rect class="cls-2" x="757" y="400.4" width="34.2" height="36.6"/>
  <rect class="cls-2" x="688.5" y="437" width="34.2" height="36.6"/>
  <rect class="cls-2" x="722.7" y="437" width="34.2" height="36.6"/>
  <rect class="cls-2" x="757" y="437" width="34.2" height="36.6"/>
  <rect class="cls-5" x="688.5" y="473.6" width="34.2" height="36.6"/>
  <rect class="cls-2" x="722.7" y="473.6" width="34.2" height="36.6"/>
  <rect class="cls-2" x="757" y="473.6" width="34.2" height="36.6"/>
  <rect class="cls-2" x="791.2" y="290.6" width="34.2" height="36.6"/>
  <rect class="cls-3" x="825.4" y="290.6" width="34.2" height="36.6"/>
  <rect class="cls-5" x="859.7" y="290.6" width="34.2" height="36.6"/>
  <rect class="cls-2" x="791.2" y="327.2" width="34.2" height="36.6"/>
  <rect class="cls-3" x="825.4" y="327.2" width="34.2" height="36.6"/>
  <rect class="cls-5" x="859.7" y="327.2" width="34.2" height="36.6"/>
  <rect class="cls-2" x="791.2" y="363.8" width="34.2" height="36.6"/>
  <rect class="cls-3" x="825.4" y="363.8" width="34.2" height="36.6"/>
  <rect class="cls-5" x="859.7" y="363.8" width="34.2" height="36.6"/>
  <rect class="cls-5" x="791.2" y="400.4" width="34.2" height="36.6"/>
  <rect class="cls-3" x="825.4" y="400.4" width="34.2" height="36.6"/>
  <rect class="cls-5" x="859.7" y="400.4" width="34.2" height="36.6"/>
  <rect class="cls-2" x="791.2" y="437" width="34.2" height="36.6"/>
  <rect class="cls-3" x="825.4" y="437" width="34.2" height="36.6"/>
  <rect class="cls-5" x="859.7" y="437" width="34.2" height="36.6"/>
  <rect class="cls-2" x="791.2" y="473.6" width="34.2" height="36.6"/>
  <rect class="cls-3" x="825.4" y="473.6" width="34.2" height="36.6"/>
  <rect class="cls-5" x="859.7" y="473.6" width="34.2" height="36.6"/>
  <rect class="cls-2" x="688.5" y="36.7" width="34.2" height="36.6"/>
  <rect class="cls-2" x="722.7" y="36.7" width="34.2" height="36.6"/>
  <rect class="cls-2" x="757" y="36.7" width="34.2" height="36.6"/>
  <polyline class="cls-3" points="688.5 109.9 688.5 73.3 722.7 73.3 722.7 109.9"/>
  <polyline class="cls-3" points="722.7 109.9 722.7 73.3 757 73.3 757 109.9"/>
  <polyline class="cls-3" points="757 109.9 757 73.3 791.2 73.3 791.2 109.9"/>
  <rect class="cls-2" x="791.2" y="36.7" width="34.2" height="36.6"/>
  <rect class="cls-2" x="825.4" y="36.7" width="34.2" height="36.6"/>
  <rect class="cls-2" x="859.7" y="36.7" width="34.2" height="36.6"/>
  <polyline class="cls-3" points="791.2 109.9 791.2 73.3 825.4 73.3 825.4 109.9"/>
  <polyline class="cls-3" points="825.4 109.9 825.4 73.3 859.7 73.3 859.7 109.9"/>
  <polyline class="cls-5" points="859.7 109.9 859.7 73.3 893.9 73.3 893.9 109.9"/>
  <rect class="cls-3" x="688.7" y="510.2" width="34.2" height="36.6"/>
  <rect class="cls-5" x="722.9" y="510.2" width="34.2" height="36.6"/>
  <rect class="cls-2" x="757.1" y="510.2" width="34.2" height="36.6"/>
  <rect class="cls-1" x="688.7" y="546.8" width="34.2" height="36.6"/>
  <rect class="cls-3" x="722.9" y="546.8" width="34.2" height="36.6"/>
  <rect class="cls-5" x="757.1" y="546.8" width="34.2" height="36.6"/>
  <rect class="cls-2" x="688.7" y="583.4" width="34.2" height="36.6"/>
  <rect class="cls-3" x="722.9" y="583.4" width="34.2" height="36.6"/>
  <rect class="cls-5" x="757.1" y="583.4" width="34.2" height="36.6"/>
  <rect class="cls-2" x="791.4" y="510.2" width="34.2" height="36.6"/>
  <rect class="cls-3" x="825.6" y="510.2" width="34.2" height="36.6"/>
  <rect class="cls-5" x="859.9" y="510.2" width="34.2" height="36.6"/>
  <rect class="cls-2" x="791.4" y="546.8" width="34.2" height="36.6"/>
  <rect class="cls-3" x="825.6" y="546.8" width="34.2" height="36.6"/>
  <rect class="cls-5" x="859.9" y="546.8" width="34.2" height="36.6"/>
  <rect class="cls-2" x="791.4" y="583.4" width="34.2" height="36.6"/>
  <rect class="cls-3" x="825.6" y="583.4" width="34.2" height="36.6"/>
  <rect class="cls-5" x="859.9" y="583.4" width="34.2" height="36.6"/>
  <rect class="cls-3" x="688.7" y="620.1" width="34.2" height="36.6"/>
  <rect class="cls-5" x="722.9" y="620.1" width="34.2" height="36.6"/>
  <rect class="cls-2" x="757.1" y="620.1" width="34.2" height="36.6"/>
  <rect class="cls-5" x="688.7" y="656.7" width="34.2" height="36.6"/>
  <rect class="cls-2" x="722.9" y="656.7" width="34.2" height="36.6"/>
  <rect class="cls-2" x="757.1" y="656.7" width="34.2" height="36.6"/>
  <rect class="cls-2" x="688.7" y="693.3" width="34.2" height="36.6"/>
  <rect class="cls-2" x="722.9" y="693.3" width="34.2" height="36.6"/>
  <rect class="cls-2" x="757.1" y="693.3" width="34.2" height="36.6"/>
  <rect class="cls-2" x="688.7" y="729.9" width="34.2" height="36.6"/>
  <rect class="cls-2" x="722.9" y="729.9" width="34.2" height="36.6"/>
  <rect class="cls-2" x="757.1" y="729.9" width="34.2" height="36.6"/>
  <rect class="cls-3" x="688.7" y="766.5" width="34.2" height="36.6"/>
  <rect class="cls-3" x="722.9" y="766.5" width="34.2" height="36.6"/>
  <rect class="cls-3" x="757.1" y="766.5" width="34.2" height="36.6"/>
  <rect class="cls-2" x="688.7" y="803.1" width="34.2" height="36.6"/>
  <rect class="cls-2" x="722.9" y="803.1" width="34.2" height="36.6"/>
  <rect class="cls-2" x="757.1" y="803.1" width="34.2" height="36.6"/>
  <rect class="cls-2" x="791.4" y="620.1" width="34.2" height="36.6"/>
  <rect class="cls-3" x="825.6" y="620.1" width="34.2" height="36.6"/>
  <rect class="cls-5" x="859.9" y="620.1" width="34.2" height="36.6"/>
  <rect class="cls-2" x="791.4" y="656.7" width="34.2" height="36.6"/>
  <rect class="cls-3" x="825.6" y="656.7" width="34.2" height="36.6"/>
  <rect class="cls-5" x="859.9" y="656.7" width="34.2" height="36.6"/>
  <rect class="cls-2" x="791.4" y="693.3" width="34.2" height="36.6"/>
  <rect class="cls-3" x="825.6" y="693.3" width="34.2" height="36.6"/>
  <rect class="cls-5" x="859.9" y="693.3" width="34.2" height="36.6"/>
  <rect class="cls-2" x="791.4" y="729.9" width="34.2" height="36.6"/>
  <rect class="cls-3" x="825.6" y="729.9" width="34.2" height="36.6"/>
  <rect class="cls-5" x="859.9" y="729.9" width="34.2" height="36.6"/>
  <rect class="cls-3" x="791.4" y="766.5" width="34.2" height="36.6"/>
  <rect class="cls-3" x="825.6" y="766.5" width="34.2" height="36.6"/>
  <rect class="cls-5" x="859.9" y="766.5" width="34.2" height="36.6"/>
  <rect class="cls-2" x="791.4" y="803.1" width="34.2" height="36.6"/>
  <rect class="cls-2" x="825.6" y="803.1" width="34.2" height="36.6"/>
  <rect class="cls-5" x="859.9" y="803.1" width="34.2" height="36.6"/>
  <rect class="cls-4" x="894.6" y="109.1" width="34.2" height="36.6"/>
  <rect class="cls-4" x="894.6" y="145.7" width="34.2" height="36.6"/>
  <rect class="cls-4" x="894.2" y="180.7" width="34.2" height="36.6"/>
  <rect class="cls-4" x="894.2" y="217.3" width="34.2" height="36.6"/>
  <rect class="cls-4" x="894.2" y="253.9" width="34.2" height="36.6"/>
  <rect class="cls-4" x="894.2" y="290.5" width="34.2" height="36.6"/>
  <rect class="cls-4" x="894.2" y="327.1" width="34.2" height="36.6"/>
  <rect class="cls-4" x="894.2" y="363.8" width="34.2" height="36.6"/>
  <rect class="cls-4" x="894.2" y="400.4" width="34.2" height="36.6"/>
  <rect class="cls-4" x="894.2" y="437" width="34.2" height="36.6"/>
  <rect class="cls-4" x="894.2" y="473.6" width="34.2" height="36.6"/>
  <rect class="cls-4" x="894.2" y="36.7" width="34.2" height="36.6"/>
  <polyline class="cls-4" points="894.2 109.9 894.2 73.3 928.5 73.3 928.5 109.9"/>
  <rect class="cls-4" x="894.4" y="510.2" width="34.2" height="36.6"/>
  <rect class="cls-4" x="894.4" y="546.8" width="34.2" height="36.6"/>
  <rect class="cls-4" x="894.4" y="583.4" width="34.2" height="36.6"/>
  <rect class="cls-4" x="894.4" y="620" width="34.2" height="36.6"/>
  <rect class="cls-4" x="894.4" y="656.6" width="34.2" height="36.6"/>
  <rect class="cls-4" x="894.4" y="693.2" width="34.2" height="36.6"/>
  <rect class="cls-4" x="894.4" y="729.8" width="34.2" height="36.6"/>
  <rect class="cls-4" x="894.4" y="766.5" width="34.2" height="36.6"/>
  <rect class="cls-4" x="894.4" y="803.1" width="34.2" height="36.6"/>
  <rect class="cls-4" x="37.7" y="839.7" width="34.2" height="36.6"/>
  <rect class="cls-4" x="72" y="839.7" width="34.2" height="36.6"/>
  <rect class="cls-4" x="106.2" y="839.7" width="34.2" height="36.6"/>
  <rect class="cls-4" x="140.4" y="839.7" width="34.2" height="36.6"/>
  <rect class="cls-4" x="174.7" y="839.7" width="34.2" height="36.6"/>
  <rect class="cls-4" x="208.9" y="839.7" width="34.2" height="36.6"/>
  <rect class="cls-4" x="243.1" y="839.7" width="34.2" height="36.6"/>
  <rect class="cls-4" x="277.4" y="839.7" width="34.2" height="36.6"/>
  <rect class="cls-4" x="311.6" y="839.7" width="34.2" height="36.6"/>
  <rect class="cls-4" x="346.2" y="839.7" width="34.2" height="36.6"/>
  <rect class="cls-4" x="380.4" y="839.7" width="34.2" height="36.6"/>
  <rect class="cls-4" x="414.7" y="839.7" width="34.2" height="36.6"/>
  <rect class="cls-4" x="448.9" y="839.7" width="34.2" height="36.6"/>
  <rect class="cls-4" x="483.1" y="839.7" width="34.2" height="36.6"/>
  <rect class="cls-4" x="517.4" y="839.7" width="34.2" height="36.6"/>
  <rect class="cls-4" x="551.6" y="839.7" width="34.2" height="36.6"/>
  <rect class="cls-4" x="585.9" y="839.7" width="34.2" height="36.6"/>
  <rect class="cls-4" x="620.1" y="839.7" width="34.2" height="36.6"/>
  <rect class="cls-4" x="654.3" y="839.7" width="34.2" height="36.6"/>
  <rect class="cls-4" x="688.5" y="839.7" width="34.2" height="36.6"/>
  <rect class="cls-4" x="722.8" y="839.7" width="34.2" height="36.6"/>
  <rect class="cls-4" x="757" y="839.7" width="34.2" height="36.6"/>
  <rect class="cls-4" x="791.2" y="839.7" width="34.2" height="36.6"/>
  <rect class="cls-4" x="825.5" y="839.7" width="34.2" height="36.6"/>
  <rect class="cls-4" x="859.7" y="839.7" width="34.2" height="36.6"/>
  <rect class="cls-4" x="894.3" y="839.7" width="34.2" height="36.6"/>
  <rect class="cls-4" x="3.3" y="109" width="34.2" height="36.6"/>
  <rect class="cls-4" x="3.3" y="145.6" width="34.2" height="36.6"/>
  <rect class="cls-4" x="3" y="180.7" width="34.2" height="36.6"/>
  <rect class="cls-4" x="3" y="217.3" width="34.2" height="36.6"/>
  <rect class="cls-4" x="3" y="253.9" width="34.2" height="36.6"/>
  <rect class="cls-4" x="3" y="290.5" width="34.2" height="36.6"/>
  <rect class="cls-4" x="3" y="327.1" width="34.2" height="36.6"/>
  <rect class="cls-4" x="3" y="363.7" width="34.2" height="36.6"/>
  <rect class="cls-4" x="3" y="400.3" width="34.2" height="36.6"/>
  <rect class="cls-4" x="3" y="436.9" width="34.2" height="36.6"/>
  <rect class="cls-4" x="3" y="473.5" width="34.2" height="36.6"/>
  <rect class="cls-4" x="3" y="36.6" width="34.2" height="36.6"/>
  <polyline class="cls-4" points="3 109.8 3 73.2 37.2 73.2 37.2 109.8"/>
  <rect class="cls-4" x="3.1" y="510.1" width="34.2" height="36.6"/>
  <rect class="cls-4" x="3.1" y="546.8" width="34.2" height="36.6"/>
  <rect class="cls-4" x="3.1" y="583.4" width="34.2" height="36.6"/>
  <rect class="cls-4" x="3.1" y="620" width="34.2" height="36.6"/>
  <rect class="cls-4" x="3.1" y="656.6" width="34.2" height="36.6"/>
  <rect class="cls-4" x="3.1" y="693.2" width="34.2" height="36.6"/>
  <rect class="cls-4" x="3.1" y="729.8" width="34.2" height="36.6"/>
  <rect class="cls-4" x="3.1" y="766.4" width="34.2" height="36.6"/>
  <rect class="cls-4" x="3.1" y="803" width="34.2" height="36.6"/>
  <rect class="cls-4" x="3" y="839.7" width="34.2" height="36.6"/>
  <rect class="cls-4" x="37" y="0" width="34.2" height="36.5"/>
  <rect class="cls-4" x="71.3" y="0" width="34.2" height="36.5"/>
  <rect class="cls-4" x="105.5" y="0" width="34.2" height="36.5"/>
  <rect class="cls-4" x="139.7" y="0" width="34.2" height="36.5"/>
  <rect class="cls-4" x="174" y="0" width="34.2" height="36.5"/>
  <rect class="cls-4" x="208.2" y="0" width="34.2" height="36.5"/>
  <rect class="cls-4" x="242.4" y="0" width="34.2" height="36.5"/>
  <rect class="cls-4" x="276.7" y="0" width="34.2" height="36.5"/>
  <rect class="cls-4" x="310.9" y="0" width="34.2" height="36.5"/>
  <rect class="cls-4" x="345.5" y="0" width="34.2" height="36.5"/>
  <rect class="cls-4" x="379.7" y="0" width="34.2" height="36.5"/>
  <rect class="cls-4" x="414" y="0" width="34.2" height="36.5"/>
  <rect class="cls-4" x="448.2" y="0" width="34.2" height="36.5"/>
  <rect class="cls-4" x="482.4" y="0" width="34.2" height="36.5"/>
  <rect class="cls-4" x="516.7" y="0" width="34.2" height="36.5"/>
  <rect class="cls-4" x="550.9" y="0" width="34.2" height="36.5"/>
  <rect class="cls-4" x="585.2" y="0" width="34.2" height="36.5"/>
  <rect class="cls-4" x="619.4" y="0" width="34.2" height="36.5"/>
  <rect class="cls-4" x="653.6" y="0" width="34.2" height="36.5"/>
  <rect class="cls-4" x="687.8" y="0" width="34.2" height="36.5"/>
  <rect class="cls-4" x="722.1" y="0" width="34.2" height="36.5"/>
  <rect class="cls-4" x="756.3" y="0" width="34.2" height="36.5"/>
  <rect class="cls-4" x="790.5" y="0" width="34.2" height="36.5"/>
  <rect class="cls-4" x="824.8" y="0" width="34.2" height="36.5"/>
  <rect class="cls-4" x="859" y="0" width="34.2" height="36.5"/>
  <rect class="cls-4" x="893.6" y="0" width="34.2" height="36.5"/>
  <rect class="cls-4" x="2.3" width="34.2" height="36.5"/>
</svg>